<svg height="64" viewBox="0 0 64 64" width="64" xmlns="http://www.w3.org/2000/svg"><path d="m43.87 24.2a1.4 1.4 0 0 0 .16-.62 43.75 43.75 0 0 0 -4.41-3.58 1.72 1.72 0 0 0 -.22.86c.03.14 4.47 3.34 4.47 3.34zm-.09-3.64a19.47 19.47 0 0 0 -3.11-2.62c-.16 0-.53.65-.53.65s3.52 2.56 3.61 2.62.06-.4.03-.65zm-.92-3.26c.12 0 0-.37-.07-.62a7.38 7.38 0 0 0 -1.91-1.14 1.63 1.63 0 0 0 -.12.65 9.84 9.84 0 0 0 2.1 1.11zm-19.51-2.5a8.49 8.49 0 0 1 2.83-2.56c.15-.06 0-.43-.22-.55s-1.63.55-3.11 2.06a8.75 8.75 0 0 0 -2 3.3 3.36 3.36 0 0 0 1.15.55c.2-.03.33-1.26 1.35-2.8zm-.22 4.93a14.07 14.07 0 0 0 -2.07 5.52c-.06 1.11.5 1.66 2.25 2.16a10.91 10.91 0 0 0 4.29.4c.34-.19.37-2.1-.4-5a14.13 14.13 0 0 1 -.31-5.7c.06-.55-.26-1-.56-.89a12.42 12.42 0 0 0 -3.2 3.51zm2.8 3.42c.47 1.94.71 3.27.44 3.45a11.83 11.83 0 0 1 -3.21-.43c-.68-.15-1-.31-1-.77a17.74 17.74 0 0 1 1.08-3.82c.56-1.2 1.73-2.68 2.1-2.71.19-.01.13 2.34.59 4.28zm-15.1-3a5.84 5.84 0 0 0 -3.51 3 5.56 5.56 0 0 0 -.09 3.48c.15.16 1.51.53 1.63.31s-.71-2.13-.4-3.67 2.68-2.43 2.8-2.52-.09-.62-.43-.65zm45 4.53a.39.39 0 0 0 .25-.43 34 34 0 0 0 -3.64-2.47 2.59 2.59 0 0 0 -.18.87 22 22 0 0 0 3.57 1.98zm.06 3.95c.16 0 .28-.22.25-.47a37.27 37.27 0 0 0 -4.53-3.6 1.89 1.89 0 0 0 -.28 1c.09.09 4.41 3.02 4.56 3.02zm-.49 2.37c.09.06.31-.37.34-.55a35.09 35.09 0 0 0 -5.12-3.33 5.24 5.24 0 0 0 -.65.95c-.06.17 5.34 2.85 5.43 2.93zm-2.16 1.48c.19.06.28-.22.37-.43s-4.78-2.78-5-2.74-.43.58-.52.7 4.97 2.39 5.15 2.45zm-2.24 1.58a37.29 37.29 0 0 0 -3.88-2.4 1.66 1.66 0 0 0 -.5.71 30.61 30.61 0 0 0 4 1.94c.13-.03.19-.12.38-.25zm-2.77 2.1c.15 0 .37-.19.52-.28a19 19 0 0 0 -3.42-2.06 2.07 2.07 0 0 0 -.59.52 26.61 26.61 0 0 0 3.45 1.82zm-3 .89a19.51 19.51 0 0 0 -2.5-1.6c-.15.06-.43.34-.43.43a22.67 22.67 0 0 0 2.44 1.42c.12.03.49-.25.49-.25zm8.77 12.73-2.68-7.92a34.24 34.24 0 0 0 4.31-3c1.79-1.51 5.61-5.76 5.74-9.24s-2.07-7.25-6.48-10.85-10.6-4.72-10.6-4.72a19.11 19.11 0 0 0 -5.3-4.93 17.42 17.42 0 0 0 -12.99-.95 14.13 14.13 0 0 0 -8.14 6.41 43.12 43.12 0 0 0 -7.86 2.5c-3.61 1.63-7.12 5.18-7.31 6.84s.84 7.08 4.63 11.65a24.9 24.9 0 0 0 7.89 6.43l-4 8.91a3.46 3.46 0 0 0 -1.45.71c-.65.55-2 2.8-.34 4.19s4.87 1.05 5.24-1a2.55 2.55 0 0 0 -.93-2.81l6.41-7.61s1.79.49 5.27 1.29a32.75 32.75 0 0 0 5.67.87l.71 2.65a2.24 2.24 0 0 0 -1.33.95c-.46.77-1 2.53.41 3.58s4.68.77 4.93-1.27a2.48 2.48 0 0 0 -1.17-2.68l.27-3.27a59.68 59.68 0 0 0 6.29-.83c4.07-.71 5-1.6 5.12-1.63s5.54 6.35 5.54 6.35a8.21 8.21 0 0 0 -.73 1.94c-.19.92-.19 2 1.54 3s4.77-.15 4.28-2.62a4 4 0 0 0 -2.94-2.94zm-35.68-31.9q2.82-5.86 8-7.77a14.59 14.59 0 0 1 11 .25 12.06 12.06 0 0 1 6.65 7.4 38.85 38.85 0 0 1 1 8.81 2 2 0 0 1 -.22.9s-5.11-4.56-5.33-4.56-.83.49-.65.7 5.23 4.07 5.1 4.29a6.23 6.23 0 0 1 -1.42.71s-3.85-3.42-4.13-3.42-.74.49-.61.58 4.07 3.15 3.91 3.3a4.8 4.8 0 0 1 -1.57.59 38.21 38.21 0 0 0 -3-2.69c-.25 0-.65.31-.52.5s2.75 2.43 2.56 2.53-1.75.47-1.75.47-1.94-1.79-2.07-1.79-.71.18-.64.4 1.63 1.66 1.51 1.73a22.21 22.21 0 0 1 -11.81-.47c-6.47-2-7.21-4.1-7.21-4.1a15.62 15.62 0 0 1 1.2-8.36zm-13.47 8.32c-.77-3.42 2.65-6.07 4.72-7.2a56.22 56.22 0 0 1 6.9-2.71c.13.06.19.31.19.31a27.3 27.3 0 0 0 -1.54 5.7 14.76 14.76 0 0 0 .21 4.65c.12.16 3 4.23 10.76 5.43a33.72 33.72 0 0 0 16.58-1.68 10.21 10.21 0 0 0 3.67-2.7 4.5 4.5 0 0 0 .66-2.38 19.27 19.27 0 0 0 -.31-4.75 40.38 40.38 0 0 0 -1-4.16 18.82 18.82 0 0 1 6.17 2.44c2.28 1.66 6.56 4.83 6.38 9.12s-5.4 7.12-7.83 8.14-10.7 4.59-20.16 3.79-13.44-2.13-18.8-5.86-6.16-6.21-6.6-8.14zm5.67 29c-.95-.43-1.14-2.9.53-3.05.82-.08 2.65.67 2.59 2s-2.16 1.49-3.12 1.06zm2.56-3.89c-.18 0-.65 0-.65-.12s3.58-8.48 3.76-8.63a10 10 0 0 1 2.81 1.64c-.06.1-5.73 7.09-5.92 7.12zm18.86 1.69c-.83-.62-1-2.19 0-2.53a1.9 1.9 0 0 1 2.62 1.11c.53 1.42-1.78 1.99-2.62 1.42zm.22-6.32a16.39 16.39 0 0 1 1.76.06 22 22 0 0 1 -.37 2.62c-.1 0-.77 0-.8-.06s-.59-2.66-.59-2.66zm1.57-2c-7.8 0-13.37-1.18-17.72-3.73s-7.61-6.27-7.34-6.55 4.81 3.48 9.62 5.27 8.14 2.07 14.71 2.33a37.09 37.09 0 0 0 16.4-3.21c4-1.79 6.29-3.42 6.47-3.21s-2.28 3.12-6 4.84-8.34 4.21-16.14 4.25zm18.37 4.7c-.21-.31-4.56-5.52-4.53-5.61a13.75 13.75 0 0 1 2.74-1.14c0 .09 2.32 6.66 2.13 6.72s-.12.34-.34.03zm1.39 5.15c-1.57-.86-1.3-3.08-.46-3.3a2.8 2.8 0 0 1 2.77 1.42 1.56 1.56 0 0 1 -2.31 1.88z" fill="#1d1d1b"/></svg>