<svg height="64" viewBox="0 0 64 64" width="64" xmlns="http://www.w3.org/2000/svg"><path d="m24 21.78c.27-.15.06-1.94 1.11-4a6.18 6.18 0 0 1 2.89-2.78s-.34-.81-.55-.87-1.67.71-3.22 3a6.45 6.45 0 0 0 -1.23 4.31c.14.25.67.5 1 .34zm20.94.78c.1-.31-4.51-3.12-4.75-2.88a1.51 1.51 0 0 0 -.34.81c0 .12 4.44 2.5 4.6 2.53s.35-.15.44-.46zm-.12-1.49c.18 0 .25-.27.22-.55a27.93 27.93 0 0 0 -4.19-2.52c-.25-.06-.44.44-.38.53a41.22 41.22 0 0 0 4.3 2.54zm-1.44-3.27c.15 0 .06-.22 0-.53s-2-1.11-2.13-1.11-.16.53-.09.65a12.82 12.82 0 0 0 2.22.99zm-20 9.33a1.54 1.54 0 0 0 -.46 2.69c.89.58 3.39.21 3.05-1.36a1.8 1.8 0 0 0 -2.58-1.33zm1.51 1.95a1.08 1.08 0 0 1 -1.54-.1.77.77 0 0 1 .74-1.05c.44 0 1.28.65.81 1.15zm7.82-.93c-1.54.62-1.88 2.38-.59 3s3.43.15 3.31-1.33-2.04-1.94-2.71-1.67zm.12 2.29c-.74-.28-.52-1.24.37-1.46.4-.09 1.12.37 1.09.87s-.7.86-1.45.59zm7.91-1.15c.34.53 1 .93 2.51.81s1.82-1.33 1.26-2.44-2.79-.8-3.46-.41a1.39 1.39 0 0 0 -.3 2.04zm1-1.48c.43-.35 2-.06 2 .46s-.25 1.18-1.54.84-.74-1.05-.43-1.3zm7.79 4.11c0 .12 5.28 1.88 5.56 1.95s.43-.25.43-.38a50.17 50.17 0 0 0 -5.44-2.19c-.08.03-.55.5-.52.62zm2.13-2.38c-.15 0-.68.65-.68.65s5.93 2.44 6.15 2.44.18-.12.31-.34-5.6-2.75-5.75-2.75zm-.09-2.35c-.13.06-.5.71-.34.9s6.52 2.44 6.67 2.41.13-.28.13-.37a58.67 58.67 0 0 0 -6.43-2.94zm4.54-.06c.18 0 .18-.28.15-.46a19.7 19.7 0 0 0 -3.21-1.27c-.25-.06-.48.5-.34.59s3.29 1.11 3.43 1.14zm-42.88-1a9 9 0 0 0 -3.87 2.87 1.92 1.92 0 0 0 0 2.41c.25.19 1.3-.15 1.3-.4s-.8-.71-.34-1.79 3-2.44 3.24-2.53-.06-.49-.3-.58zm45.46-.61c-3.74-3.21-10.83-4-10.83-4v-.58a18 18 0 0 0 -4-7.42c-3.09-3.33-8-3.66-8-3.66s0-2.18 0-2.43-1.48-.21-1.48-.21l.08-1.36a2.57 2.57 0 0 0 1.16-.57 2.35 2.35 0 0 0 -1.62-3.47c-2.47-.62-3.5 1-3.3 2.34s1.73 1.69 1.73 1.69l.08 1.28a5.74 5.74 0 0 0 -1.73.41c-.45.29-.24 2.23-.24 2.23s-.83.16-1.2.28a23.83 23.83 0 0 0 -7.66 4.29 10.67 10.67 0 0 0 -4 7.33s-5.81.78-9.14 2.47-5.54 4.12-5.88 5.94 1.52 5.19 6 9 11.54 5.15 11.54 5.15-3.2 10.44-3.41 11.3-.13 2.93 7.41 5.32 13.68 1.4 19 .29 8-3.79 8.2-4.74-4.4-12.48-4.4-12.48a31.43 31.43 0 0 0 6.43-2.76 16.84 16.84 0 0 0 7.17-7 6.93 6.93 0 0 0 -1.88-8.66zm-12.9 4c-.56.77-4.73 2.53-12 2.47s-12-2-12.66-2.44a2.48 2.48 0 0 1 -1.05-1.08c-.1-.28-.5-3.83-.28-3.92a31.94 31.94 0 0 0 9.45 2.56 36.41 36.41 0 0 0 12.89-.62 25.44 25.44 0 0 0 3.95-1.33c.16.09.29 3.61-.27 4.38zm-13.79-24.73a1.49 1.49 0 0 1 .53-2 1.67 1.67 0 0 1 2.2 1.51c-.03 1.3-2.35 1.08-2.73.49zm-.15 3.43c.31 0 2.87-.15 2.93.16a3.45 3.45 0 0 1 0 1.23c-.09.06-3.15.06-3.15.06s-.02-1.48.26-1.45zm-9.51 8.28c2.72-2.93 5.93-4.94 10.07-5.19a14.21 14.21 0 0 1 10.59 4.23 13.5 13.5 0 0 1 2.85 6.46c.09.74.19.87 0 1s-2.38 1.05-2.38 1.05-4.38-3-4.51-2.93-.62.64-.49.71 4.32 2.47 4.11 2.59a6.69 6.69 0 0 1 -1.61.43c-.12 0-3-2-3.24-2s-.78.37-.62.52 3 1.55 2.62 1.83-7.16.83-12.35-.19-7-1.88-7.6-2.6c-.08-.06-.16-2.97 2.56-5.91zm3.8 43.23c-.49-.1 1.67-5.53 1.85-5.53s.13.15.13.3a49.36 49.36 0 0 1 -1.18 5.57c-.18 0-.65-.31-.8-.34zm23.08-3.68c0 .4-2.07 2-4.23 2.72a30.18 30.18 0 0 1 -4.18 1.08s-.49-3.24-1.05-5.65-.71-3-.92-3.06a.7.7 0 0 0 -.5.12s.81 3.46 1.21 5.81a18.17 18.17 0 0 1 .37 3 48.15 48.15 0 0 1 -6.8.58 24.56 24.56 0 0 1 -5.44-.43c.07-.12 1.49-9.08 1.36-9.18s-.8-.21-.83-.06-2.5 8.62-2.63 8.65a33.77 33.77 0 0 1 -4.35-1.51c-1.58-.68-2.38-1.11-2.44-1.45s3.33-12 3.77-12.15a7.17 7.17 0 0 1 2.81.5c-.07.18-1.86 8.19-1.67 8.28s.43.31.52.18 1.86-8.28 2.1-8.28 1.7.31 3.4.47l3.62.31s.28 4.82.12 7.84-.09 3.87 0 3.9a23.09 23.09 0 0 0 .87-6.37c0-3.15-.19-5.25 0-5.34s.86.06 2.28-.19 2.51-.34 2.51-.34 1.35 4 1.88 5.5 1.14 4.02 1.14 4.02h.34a45.58 45.58 0 0 0 -1.26-5.53c-.93-3.18-1.33-4-1.24-4.08a25.85 25.85 0 0 0 2.84-.46c1.42-.34 2.26-.5 2.26-.5s4.11 11.22 4.14 11.62zm2.29-16.25a39.86 39.86 0 0 1 -17 4 51.63 51.63 0 0 1 -20-3.27c-4.73-1.89-8.19-5.56-7.81-6 .21-.24 2.59 1.66 7 2.84s8.08 2.3 17.63 2.63 13.5-.55 17.3-1.29 7.26-2.2 7.45-2-1.7 1.76-4.57 3.09zm6.67-6.8a29.83 29.83 0 0 1 -2.87 2 4.36 4.36 0 0 1 -1.33.49s-4.27-1.95-4.48-2-.74.5-.5.71 4.11 1.61 3.9 1.83-3.87 1.33-10 1.85-14.37.9-22.5-.56-13.48-4.26-14.22-4.97-2.32-1.7.22-4.17 6.79-4 8.21-4.51a16.86 16.86 0 0 1 2.91-.67s0 4.26.68 5.44 1.8 2.61 5.25 3.66a39.54 39.54 0 0 0 11.77 1.61 34.64 34.64 0 0 0 9.67-1.71 6.19 6.19 0 0 0 3.25-2.87 6.38 6.38 0 0 0 .43-2.81 15.18 15.18 0 0 1 -.09-2.51 13.44 13.44 0 0 1 6.64 1.55c3.49 1.73 4.51 3.21 4.51 4.42a5.79 5.79 0 0 1 -1.45 3.22z" fill="#1d1d1b"/></svg>