<svg height="64" viewBox="0 0 64 64" width="64" xmlns="http://www.w3.org/2000/svg"><path d="m43.81 27.87c.19 0 .12-.53 0-.75a21.45 21.45 0 0 0 -4-1.72c-.12 0-.09.88.09 1a33.77 33.77 0 0 0 3.91 1.47zm-3.88 1.07a41.64 41.64 0 0 0 4.38 1.46c.22 0 .12-.28.12-.5a40.88 40.88 0 0 0 -4.43-1.9c-.25 0-.19.78-.07.94zm-14.28-5.72c.32-.1.72-.69 1.38-1.19a13.46 13.46 0 0 1 2.34-.88.64.64 0 0 0 -.12-.68c-.19-.19-1-.16-2.41.43a3.8 3.8 0 0 0 -1.84 1.69c-.07.19.34.72.65.63zm-4.25 11.15a11.25 11.25 0 0 0 3.6 1.35 1.47 1.47 0 0 0 1.62-1.07c.19-.84-1-3.5-1.53-5.28a8.74 8.74 0 0 1 .06-4c0-.31-1.5-.57-1.81-.47-.94.32-2.75 4.57-2.87 6.38s.12 2.53.93 3.09zm.53-4.84c.35-1.91 1.35-3.56 1.75-3.66.16 0 .19.13.16.41a20.35 20.35 0 0 0 .72 5.47c.69 2.19.84 2.5.59 2.62a9.49 9.49 0 0 1 -3.34-1 10.1 10.1 0 0 1 .12-3.84zm30.82 11.09c-.22.07-.57.41-.5.63a24.39 24.39 0 0 0 3.22 2.34c.25.1.5-.25.56-.44s-2.9-2.64-3.28-2.53zm2.62-1c-.22 0-.75.38-.87.41s2.59 1.87 2.93 2 .41-.25.5-.44a10.77 10.77 0 0 0 -2.56-2zm1.41-.78s.94.91 1.06 1 .16-.12.28-.28-.31-.94-.72-1.09-.5.22-.62.34zm-1.78-1.47a2.57 2.57 0 0 0 -3.66-2 2.32 2.32 0 0 0 -1 3.44c.84 1.44 5.06.94 4.66-1.44zm-3.69.82a1.41 1.41 0 0 1 .72-2 1.69 1.69 0 0 1 2 1.5c.15 1.15-2.25 1.4-2.72.5zm-7.53 3.59a2.8 2.8 0 0 0 -1.88 1.75 2.13 2.13 0 0 0 1.82 2.16c1.43.21 3.87-1.25 3.37-2.72s-2.41-1.44-3.31-1.19zm2.06 1.91c-.34.62-1.66 1.06-2.19.56a1 1 0 0 1 .78-1.69c.64-.06 1.75.5 1.41 1.13zm-14.59-.94a2.09 2.09 0 0 0 -.19 4.15c2.66.66 4.44-1 4.28-2.53s-3.34-1.73-4.09-1.62zm.93 3.09c-1.4 0-2.56-1.65-.9-2.06a3.49 3.49 0 0 1 2.25.66c.53.56.06 1.43-1.35 1.4zm-14.09-5.62a2.17 2.17 0 0 0 -1.09 3.93c1.4 1.22 5.53.79 5.62-1.34s-3.2-2.81-4.53-2.59zm.16 3.28c-1.44-.69-.82-2.1-.25-2.16.87-.1 3.12.25 3.34 1.31s-1.66 1.54-3.09.85zm-7.32-9.16a2.18 2.18 0 0 0 -1.84 3.16c.81 1.62 4.5 1.75 5-.66s-2.09-2.57-3.16-2.5zm1.91 2.38c-.37 1.06-1.59 1-2.41.47s-.08-1.65.6-1.82c.87-.22 2.19.28 1.81 1.35zm43.41-4.88a26.08 26.08 0 0 0 -9.41-3.47 10.68 10.68 0 0 0 -.09-1.53 26.82 26.82 0 0 0 -4.6-5.94c-3-3-7.68-3.06-7.68-3.06s0-.15-.07-1.34-2.12-1.22-2.12-1.22l.06-2.69a2.32 2.32 0 0 0 1.84-1.5c.35-1.28-.46-2.47-2.21-2.53s-2.72 1.09-2.47 2.38 1.78 1.56 1.78 1.56v2.84a8.24 8.24 0 0 0 -1.72.38c-.75.28-.78 2-.78 2s-2.31.19-2.84.34a14.54 14.54 0 0 0 -5.88 4 14.3 14.3 0 0 0 -3.34 6.31 52.93 52.93 0 0 0 -5.88 1.88c-3.15 1.22-6 3.12-7 4.59a9.17 9.17 0 0 0 .44 9.44c2.5 3.41 6.72 5.72 12.72 7.81a54.76 54.76 0 0 0 23.22 3.19c9.84-.72 13.09-3.88 15.93-5.75a11.29 11.29 0 0 0 5.07-9.13c.25-4.15-.97-5.87-4.97-8.56zm-25.5-20.59a1.06 1.06 0 0 1 .72-1.81c1.07-.13 1.93.4 1.75 1.31s-2.07.78-2.47.5zm.87 5.09c1.19.06 1.63.35 1.78.72s0 .44-.37.5-2.35 0-2.69.06a.37.37 0 0 1 -.41-.43c.07-.32.5-.91 1.69-.85zm-9.31 5.78a11.57 11.57 0 0 1 7.69-3.18c3.15-.19 6.62.43 8.72 1.81a10.73 10.73 0 0 1 2.56 2s-1.35 0-1.38.16-.09.71 0 .75a15.94 15.94 0 0 1 2.63.34c.19.19 2.25 2.06 2.59 3.94a15.76 15.76 0 0 1 0 5c-.12-.1-5.69-2.69-5.81-2.63s-.31.59-.22.69 5.94 2.53 6 2.81-.13 1.78-.13 1.78-5.78-2.87-6-2.72-.5.57-.34.69 6.31 2.75 6.28 2.94-.81.75-1.22.94l-.56.25a53.62 53.62 0 0 0 -4.88-2.75c-.21.09-.65.28-.43.59s4.37 2.41 4.15 2.62-3.87.82-9.09.72-10.09-.37-13.13-3.81a8 8 0 0 1 -1.28-4.44 15.5 15.5 0 0 1 3.85-8.5zm34.44 24.82a23.6 23.6 0 0 1 -10.35 5.9 48.07 48.07 0 0 1 -22.15-.12c-8.19-2.07-12.5-4-14.22-5.41s-3.28-3.19-2.81-3.16c.28 0 5.65 2.88 10.31 4.13a51.91 51.91 0 0 0 15.47 2.25c7.09 0 10.68-.09 15.65-1.31s7.82-2.88 8-2.75a.33.33 0 0 1 .1.47zm.18-2.69a9.78 9.78 0 0 1 -1.81 1.22s-4.25-3.35-4.44-3.32-.62.54-.46.72 4.46 3 4.25 3.19a13.24 13.24 0 0 1 -1.66.75s-2.34-1.81-2.47-1.81-.66.4-.5.65 2.16 1.44 2.06 1.54a49.56 49.56 0 0 1 -14.15 2.09 71.36 71.36 0 0 1 -20.13-2.38 44.59 44.59 0 0 1 -11.5-5.21 4.72 4.72 0 0 1 0-6.75 23.42 23.42 0 0 1 10-5.07c.27 0 .07 4.38 2 6.38s4.85 3.31 9.35 3.9a36 36 0 0 0 12.09-.15 20.52 20.52 0 0 0 7.25-2.91.72.72 0 0 0 .28-.56s.06-6.06.16-6.16 5.5.69 8.43 3 3.69 3.69 3.6 6.22a6.87 6.87 0 0 1 -2.35 4.66z" fill="#1d1d1b"/></svg>