<svg height="64" viewBox="0 0 64 64" width="64" xmlns="http://www.w3.org/2000/svg"><path d="m24.93 25.67c.31.13 2.19-2.94 2.38-3.25s-.19-.62-.57-.69-2.55 2.64-2.62 2.94.5.88.81 1zm13.31 16.81s.82.44 1.57.82 2-.44 3.87-2.69 2.5-3.94 2.25-4.75-9.5-10.44-12.69-13.31-5.81-4.24-7.12-4.44c-2-.31-5.38 5.19-6.13 6.69a2 2 0 0 0 .63 2.5s-3.38 7.06-4.88 11.12-.43 7.19 3.75 10.44 7.69 2.19 10.63 1 8.12-7.38 8.12-7.38zm-11.81-22.87c.62-.62 4.69 3.31 9.25 7.94s8 8.06 8 9.06-1.94 3.81-2.68 4.19-.93.75-.75.37 1.38-4.5 1.13-4.69-.31-.43-.56-.31-1.38 4.5-1.57 4.31-1.62-1.25-1.68-1.56 1.5-3.75 1.25-4a2 2 0 0 0 -.82-.37s-1.25 3.81-1.43 3.62-1.13-1-1.13-1 1.19-2.75.88-2.94-.5-.56-.75-.43a12.88 12.88 0 0 0 -1 2.5s-6.88-5.69-9-7.5-3.5-2.13-3.32-3.57 3.99-5.43 4.18-5.62zm-7.06 26.79c-2.29-2.42-2.92-6-1.5-9.79a56.8 56.8 0 0 1 3.87-8.19c.34-.21 7.88 5.75 10.07 7.63s5.12 4.95 4.81 5.25a11.38 11.38 0 0 1 -1.13.87s-.06-1.56-.43-1.62-.25-.25-.38-.07.15 2.17.06 2.38a4.93 4.93 0 0 1 -.83.83s-.08-2.66-.33-2.75-.92.38-.84.54.46 2.88.46 2.88l-.71.79s-.29-3-.58-3-.79.29-.67.58a16.12 16.12 0 0 1 .55 3.3 13.91 13.91 0 0 1 -4.34 2.91 9.51 9.51 0 0 1 -8.08-2.54zm3.62-12c-4.25 2.75-2.83 7.83.42 9.62 4 2.21 8.88-3.29 7.38-6.87a5.67 5.67 0 0 0 -7.79-2.79zm1.13 8.12a3.82 3.82 0 0 1 -.29-6.66 3.93 3.93 0 0 1 5.39 1.9c1.04 2.44-2.34 6.24-5.1 4.72zm0-4.58a17 17 0 0 0 -.12 2.88c.09.16.71.29.88.08a12.81 12.81 0 0 0 -.08-3.08c-.1-.29-.64-.17-.72.08zm1.88-.33a17.75 17.75 0 0 0 0 2.5c.13.42.5.08.71-.13a8.29 8.29 0 0 0 .17-2.29c-.01-.25-.88-.43-.88-.08zm-13.71 2.21c-.46.5-1 4.08.12 6.79s3.46 5 7.25 6.87a10.82 10.82 0 0 0 7.71.63c.17-.13.08-1 0-1.25s-2.63-.08-4.42-.21-4.67-1.17-7.71-4.75a7.73 7.73 0 0 1 -1.08-8c.08-.25-1.61-.37-1.87-.08zm31-9.46c0 .29 1 1.25 1.21 1.17s11.5-11.96 11.66-12.46-1.08-1.54-1.54-1.5-11.29 12.52-11.29 12.79zm12.46-2c-.34.08-1.5 1.33-4.17 4.83s-13.58 15.81-18.13 19.75-7.83 5.75-10.33 5.34-11.33-4.5-13-8.25-.67-7.5.08-9.75 7.5-14.75 10.17-18.92 10.92-15.75 10.92-15.75-.47-.87-.84-.67c-1.66.92-9.25 12.17-13.75 19.75s-10.7 18.09-9.83 23.42 7.67 9.17 13.58 11.42 10-1.25 16.42-7.09 20.13-22.75 20.33-23.16-1.08-1-1.41-.92zm-23.59-10.42c.38-.21 8.17-10.66 8.38-11s-1.09-1.12-1.46-1-8.35 10.84-8.25 11c.25.54.96 1.21 1.33 1zm8.17 6.84c.16.16 1 1.08 1.21.95s13-14.08 13.16-14.41-1-1.21-1.29-1.25-13.41 14.41-13.08 14.71zm-3.17-1.78c.33-.18 15.84-17.64 15.84-17.85s-1-1.58-1.46-1.33-15.71 17.64-15.71 18c.04.25 1 1.33 1.33 1.18z" fill="#fff"/></svg>