<svg height="64" viewBox="0 0 64 64" width="64" xmlns="http://www.w3.org/2000/svg"><path d="m56.12 25c-.41 0-1.25 1.83-2.54 4s-9.08 13.52-11.37 16.43-7.75 8.75-11 11-7.7 2.3-12.54.09-9-5.63-9.91-9.88.4-9.08 5.07-16.64 19.17-24.69 19.29-25-1.12-1-1.54-.86c-1.5.59-15.79 19.92-19.21 25s-6 10-6.16 15.25 4.2 9.09 6.66 11.21 9.25 4.92 13.54 4.46 9.84-4.33 13.84-9.25 17.58-24.63 17.54-24.88a2.83 2.83 0 0 0 -1.67-.93zm-10.29.46c.29-.05 10-12.09 10.08-12.34s-1.08-.83-1.41-.91-10.06 11.79-9.92 12.35c.04.17.96.96 1.25.92zm-13.25-7.23c.42-.17 9.13-11.23 9.29-11.67s-1.29-1.25-1.58-1.17-8.88 11.29-9 12c-.13.38.87 1 1.29.84zm7.67 2.62c.54 0 12.5-15.29 12.54-15.71s-1.08-1.25-1.46-1.25-12.17 15.26-12.33 15.88c-.13.23.71 1.08 1.25 1.08zm-28.38 19.75a7.69 7.69 0 0 0 -.21 3.92 5.19 5.19 0 0 0 2.8 3.33c1.79 1 2.5 3.54 4 4.88s3.62 1.41 6.33 1.79a7.88 7.88 0 0 0 4.54-.5c.21-.13-.33-1.09-.46-1.21s-2 .42-3.33.54-2.29-.21-4.25-.87-2-1.48-2.79-2.48a14.3 14.3 0 0 0 -2.71-2.79 7.74 7.74 0 0 1 -2.46-3c-.42-1 .25-3.29.21-3.62s-1.43-.33-1.67.01zm20 7.38c.84.08 3.59 1.29 5 .83s2.59-3.88 3.42-5.67 2.33-1.62 3.83-4.87.84-6.21-1-9.71-5-3.38-7.25-4.08-.92-1.21-2.71-2.8-6.12-2.12-11.37.84-5 6.79-5 7.46a.79.79 0 0 0 .79.83c.29 0 1.81 1.33 1.79 1.75 0 .71-2.63 1.67-3.67 2.29s-1 4.67-.08 7.17 3.08 2.21 4.92 2.54 2.83 3.08 4.29 3.79 1.54-.08 3.29-.25a21 21 0 0 1 3.79-.1zm-2.2-1.8c-1.63.17-2.75 1-4 .25s-2-2.66-3.75-3.2-3.55-.38-4.5-1.92a8.46 8.46 0 0 1 -.55-5.31c.49-.49 3.75-1.46 4.25-2.79a3 3 0 0 0 -1.12-3.07c-.5-.33-1.09-.62-1-1.21a7.19 7.19 0 0 1 5.12-5.58c4.38-1.5 6-1.79 7.67-.12s1.75 2.66 4.17 3.41 3.91.38 5.2 2.42 2.17 5.25 1.5 7.42-1.45 3.08-2.12 3.52a6.82 6.82 0 0 0 -1.79 1.58 4.64 4.64 0 0 0 -.34.75 17.1 17.1 0 0 0 -1.5-2.67c-.2 0-.79 0-.62.3s1.62 2.83 1.71 3.16a8.92 8.92 0 0 1 -1.29 3.38c-.55.58-2.05.54-3.38.12a7.47 7.47 0 0 0 -3.62-.44zm-10.17-9.66a.48.48 0 0 0 -.75-.25 4 4 0 0 0 -.5 2.37 5 5 0 0 0 1 2.46c.29.29.87 0 1.08-.29s-.46-.79-.79-1.92a6.4 6.4 0 0 1 -.04-2.37zm12.71-7.79a2.64 2.64 0 0 0 -4-2.92c-1.84.92-2.84 2.92-1.5 4.87s4.95.32 5.5-1.95zm-3.54-1.92a1.82 1.82 0 0 1 2.73 2c-.38 1.58-2.84 2.7-3.76 1.35a2.23 2.23 0 0 1 1.03-3.35zm.12 12.83c-1.5.67-2.83 3-1.75 4.29a4.15 4.15 0 0 0 3.37 1.5c.71 0 1.84-.54 1.5-.87s-2.87-.54-2.33-2 2-2.13 2.92-1.71c.22.1.41-.54.08-.88a4.49 4.49 0 0 0 -3.79-.33zm7.79-6.25c-.75 2.09-.83 3 .08 3.79a2.92 2.92 0 0 0 2.67.67c.33-.21.29-.83.08-.92s-1.79-.66-1.29-2a3.8 3.8 0 0 1 1.79-1.88 1.1 1.1 0 0 0 .3-.83c-.3-.16-2.88-.91-3.63 1.17zm1.54 5.46a14.07 14.07 0 0 0 .5 1.54c.17.21.34-.12.59-.41s-.25-1.17-.38-1.34-.94-.02-.71.21zm-2.62 1.83c-.17 0-.59.42-.54.71a11.47 11.47 0 0 0 1.66 2.67c.34.21.29-.25.38-.67a7.23 7.23 0 0 0 -1.5-2.71zm-4.71-6.91a15 15 0 0 0 1.42 3.5c.29.33.29 0 .58-.34s-1.13-3.16-1.38-3.41-.41.01-.62.25zm3 2c.25.33.33 0 .63-.3s-1-3.08-1.21-3.2-.71.09-.54.41a32 32 0 0 0 1.16 3.05zm2.08-3a8.56 8.56 0 0 0 -1.04-2.77c-.21-.21-.73.21-.83.46a19 19 0 0 0 1.33 2.79s.5-.25.58-.57zm1-2.54c.34.13.29-.12.38-.41a2.89 2.89 0 0 0 -.88-1.59c-.25-.08-.54.38-.54.38s.71 1.39 1.04 1.53z" fill="#1d1d1b"/></svg>