<svg height="64" viewBox="0 0 64 64" width="64" xmlns="http://www.w3.org/2000/svg"><path d="m9.16 10s-.59 2-.62 2.16.21.21.46.34 1.54-1.5 1.57-1.59 1 .28 1.28.18 0-.81 0-1 1.15-1.09 1.06-1.46-1.41-.18-1.75-.25-.41-1.71-.87-1.78-.66 2-.72 2.1-1.57-.08-1.78 0-.29.4-.13.5zm-2 8.72a.89.89 0 0 0 -.25 1.37.88.88 0 0 0 1.38-.53c.15-.86-.37-1.3-1.13-.83zm32.53-12.21a1.71 1.71 0 0 0 -2.4-1.69 1.74 1.74 0 0 0 -.63 2.85 1.8 1.8 0 0 0 3.03-1.16zm-2.11-1a.92.92 0 0 1 1.3.91 1 1 0 0 1 -1.64.63.94.94 0 0 1 .34-1.5zm10 8c.34.13.37 2.06.69 2.09s1-1.31 1.15-1.4 1.69.47 2 .22-.59-1.5-.65-1.66.65-2.37.25-2.59-1.69.53-2 .56-1.3-1.88-1.64-1.73-.15 3-.34 3-1.69.5-1.6.87 1.81.55 2.16.67zm6.53 3.69a2.31 2.31 0 0 0 -1.39 3.8c1.19 1.22 3.94 1.12 4.16-1a2.52 2.52 0 0 0 -2.75-2.77zm-.58 3.07a1.26 1.26 0 0 1 .77-2 1.37 1.37 0 0 1 1.49 1.48c-.1 1.16-1.59 1.25-2.24.55zm-18.8 1.37a2 2 0 0 0 -1.23 2.56c.5 1.09 3.22 1.56 3.82-.47s-1.53-2.51-2.57-2.06zm1.79 1.89a1.29 1.29 0 0 1 -2.27.28 1.18 1.18 0 0 1 .74-1.5c.64-.24 1.9.04 1.55 1.25zm12 9.64c.29-.16-.25-2.35-.25-2.35s1.5-.75 1.57-1.06-1.88-.47-1.88-.47 0-3.06-.47-3-1.81 2.81-1.81 2.81c-.22.19-1.84.1-1.87.35s1.46.78 1.46.78-.65 1.87-.46 2.12 2.31-.84 2.31-.84 1.1 1.84 1.38 1.69zm-13.06.93c-.56.16-1.28 1.07-.69 1.75a1.24 1.24 0 0 0 2-.31 1.12 1.12 0 0 0 -1.33-1.41zm14.53 3c-2.28.6-2 3.22-.37 3.63s3.72-.34 3.31-2.13-1.93-1.73-2.93-1.47zm.06 2.9a1 1 0 0 1 .21-2c.57-.14 1.43-.15 1.65.85s-.91 1.34-1.86 1.15zm-39.58 7a1.18 1.18 0 0 0 -1.87-1 1.22 1.22 0 0 0 -.16 1.84c.56.45 2.06.16 2.03-.84zm24.07 7.1c-1.94.5-2.47 2.22-1 3.35a2.29 2.29 0 0 0 3.5-1.38 1.9 1.9 0 0 0 -2.5-1.97zm-.35 2.63c-.78-.59-.5-1.49.51-1.76a1 1 0 0 1 1.3 1.03 1.2 1.2 0 0 1 -1.81.73zm17.56-4.66a27.3 27.3 0 0 0 0-2.84c-.09-.16-.09-.16-.5 0s-1.93 2.87-2 3-2.43.06-2.59.12-.16.41-.09.66 2.18.44 2.18.44a8.27 8.27 0 0 1 -.78 1.28c-.22.18.22.47.38.59a10.81 10.81 0 0 0 2.22-.87l.43 1.06a.75.75 0 0 0 .69.09c.34-.15 0-2.09 0-2.09s1.1-.84 1.06-1.16-1-.28-1-.28zm-36.06 3.47a2.75 2.75 0 0 0 -.62-2.69 2.37 2.37 0 0 0 -2.72-.47s-1.88-2-2.6-.65.79 2.69.79 2.69a1.9 1.9 0 0 0 .46 2.34 2.88 2.88 0 0 0 2.6.37s2.37 1.6 3 .44-.91-2.03-.91-2.03zm-4.84-1.72s-.91-1.09-.53-1.56 1.56.47 1.56.47-.97 1.09-1.03 1.09zm.72 2.63c-.63-.35-.07-1.28-.07-1.28s1 1 1.32 1.21l.28.22a2.61 2.61 0 0 1 -1.53-.15zm2.59-.28a4.64 4.64 0 0 1 -2.41-2.17s1.16-1.81 2.5-.81 0 3.01-.09 2.98zm1.63 1c-.32.22-1.16-.38-1.16-.38l.44-.69c.28.19 1.03.9.72 1.1zm-2.25-3.85c-.35 0-.91.53-.91.53a2.22 2.22 0 0 1 .22.47l.56-.34.63-.38a.69.69 0 0 0 -.5-.25zm27.46-10.53c-.57.16-5.13 2.22-9.22 1s-5.35-4-5.32-6 .38-3.53.47-4.72c.05-.53-3.81-2.25-3.87-7.18s2.37-9 8.31-10.19 8.5-.13 8.94-.56.75-2.75-2.75-4.82-14.09-3.32-22.4 4.6-7.44 16.46-6.59 19.87a20.86 20.86 0 0 0 8 11.91c4.84 3.34 7.53 4.43 11.78 5.09s8.75-1.41 11.19-3.06 3-3.41 2.93-4.16-.87-1.94-1.47-1.78zm-2.92 4.94a15 15 0 0 1 -7.42 2.27 9.45 9.45 0 0 1 -5.35-1.1c-.11-.13 0-1.86-.09-2s-.73-.19-.83-.19.06 1.79 0 1.81a2.49 2.49 0 0 1 -.65-.41c-.06-.09 0-2.59-.08-2.8s-1-.23-1.08-.1a21.52 21.52 0 0 0 .23 2.79c0 .06-.48-.31-.61-.38a12.69 12.69 0 0 1 -.2-1.62 1 1 0 0 0 -.77 0c-.18.1.13 1.39.13 1.39a9.61 9.61 0 0 1 -2-1.17 24.2 24.2 0 0 1 -6-6 18.87 18.87 0 0 1 -3.36-10.22 14.81 14.81 0 0 1 2.19-8 19 19 0 0 1 4.81-6.42 25.3 25.3 0 0 1 9.21-4.66 16.74 16.74 0 0 1 9.23.14c1.81.71 3.1 2.75 2.86 2.81-.09 0-3.44-.16-5.36-.1a14.77 14.77 0 0 0 -8.86 4.23c-2.75 2.9-3.27 5.83-3.06 9.27s3.93 6.36 4 6.58-.67 3.38-.5 4.84 1.37 4.31 5.48 6.31 10.32-.29 10.46-.27.19.1.29.37-.96 1.59-2.63 2.63zm-14.36-31.54a1.73 1.73 0 0 0 2.46-1.8 1.58 1.58 0 0 0 -2.08-1.2c-1.21.43-2.02 2.43-.38 3zm.59-2.19a.76.76 0 0 1 1 .58.83.83 0 0 1 -1.18.86c-.79-.29-.4-1.25.18-1.44zm-6.88 7c1.52 1 3.61-.44 3.4-2.31s-2.59-2-3.36-1.42a2.34 2.34 0 0 0 -.04 3.73zm.57-2.89c.44-.32 1.82-.27 1.94.82a1.33 1.33 0 0 1 -2 1.34 1.36 1.36 0 0 1 .06-2.16zm-4.65 8a22.52 22.52 0 0 0 1.54-4.21c0-.39-.61-.5-.75-.37a10.5 10.5 0 0 0 -1.71 4.56c.15.41.57.28.9.01zm.94 2.67c-2.19.92-1.88 3.21-1 4.58s4.27 2.29 4.75-1.14-2.43-4.01-3.77-3.45zm3 3.25c-.34 2.4-2.7 1.76-3.32.8s-.85-2.56.68-3.21c.88-.4 2.91-.01 2.58 2.38zm2.14 5.65c-2.19.91-1.88 3.2-1 4.58s4.27 2.29 4.75-1.15-2.47-4.01-3.81-3.44zm3 3.25c-.33 2.4-2.69 1.76-3.32.8s-.85-2.57.68-3.21c.84-.4 2.88-.01 2.54 2.4zm5.33 4.95a1.26 1.26 0 0 0 0 2.4c.94.33 1.59-.35 1.61-1.25a1.14 1.14 0 0 0 -1.71-1.16zm.21 1.75a.59.59 0 0 1 0-1.12.53.53 0 0 1 .76.53c-.11.41-.42.74-.86.58z" fill="#1d1d1b"/></svg>