<svg height="64" viewBox="0 0 64 64" width="64" xmlns="http://www.w3.org/2000/svg"><path d="m24.59 34.68a12.37 12.37 0 0 0 .69 3.22 3.82 3.82 0 0 0 3.46 1.8c1.13-.1 1.93-1.53 1.93-1.53a3.62 3.62 0 0 0 .93 1 3.54 3.54 0 0 0 2.72.4c1-.17 1.5-1.5 1.5-1.5a6.07 6.07 0 0 0 .7.77 3.42 3.42 0 0 0 1.59.2c1.07 0 1.53-.5 2.39-2.2a5.76 5.76 0 0 0 .44-3.55s1.69-.47 4.58-3.89 3.66-4.82 4.48-10.21-.8-8-4.59-12.16-11.92-5.95-18.53-4.58a18.37 18.37 0 0 0 -12.1 9.27 17.1 17.1 0 0 0 -1.66 5.91c-.1 2.56 1.1 8.81 4.32 12.53a14.25 14.25 0 0 0 7.15 4.52zm-9.07-17.38a15.18 15.18 0 0 1 4.05-8.24 16.37 16.37 0 0 1 12.76-4.62c7 .4 13.59 4 15.19 8.81a15.87 15.87 0 0 1 -3 14.68c-3.29 3.66-5.48 4.16-5.52 4.62s.23 3.13-.4 4.16a1.19 1.19 0 0 1 -2 .3c-.27-.47-.2-2.2-.63-2.36s-1.06-.1-1.16.13-.37 2.62-.87 2.86a1.37 1.37 0 0 1 -1.86-.5c-.56-.87-.6-1.9-.83-2.13a1.41 1.41 0 0 0 -1.25-.01c-.07.17-1 2.46-1.43 2.66s-1.43.2-1.66-1.56a23.33 23.33 0 0 1 0-3c-.14-.27-4.22-1.2-6.78-3.29s-5.13-8.12-4.61-12.51zm9.67 8.7c1.79.86 3-.2 3.82-1.5a10.3 10.3 0 0 0 .2-7.58c-1.1-2.39-4.77-1.26-5.32-.73-.89.81-.89 3.81-.89 5.99s.39 2.96 2.19 3.82zm13.22-.4a3.11 3.11 0 0 0 3.52-1.76 12.73 12.73 0 0 0 .63-6.68c-.46-1.8-3.46-2.08-4.05-2-2.23.2-2.13 4.65-2.13 7s1 3.25 2.03 3.45zm-7.48 4.85a13.91 13.91 0 0 0 4.56.2 2.25 2.25 0 0 0 1.56-2.39c0-.93-2-3.29-2.53-3.86a1.64 1.64 0 0 0 -2.16 0 17.33 17.33 0 0 0 -2.36 3.77 1.83 1.83 0 0 0 .93 2.29zm18.91 16.89c2 .53 3.49-.63 3.39-3.69s-2.39-3.39-2.39-3.39a4.37 4.37 0 0 0 -.37-2.76c-.69-1.13-3.25-.93-4.45 0a3.08 3.08 0 0 0 -.83 2.79l-12.93 4.62-8.34-5.84a6.66 6.66 0 0 0 .08-1.13 3.11 3.11 0 0 0 -3.16-2.86c-2.72-.14-2.74 3-3 3-5.21.83-3 3.86-1.59 5.12s4.49 0 4.49 0l5.26 3.67-7.2 1.67s0-1-3.25-1.93-4.79 2.39-4.79 4.39 2.56 2.39 2.56 2.39-.46.67-.06 2.76 3 2.92 5.41 2.09a3.74 3.74 0 0 0 2.33-3.49l10.7-3.62 9.1 6.21s-.3.23-.13 1.86 1.89 2.89 4.55 2.79a3.33 3.33 0 0 0 3.16-2.59 6.42 6.42 0 0 0 3.52-3.55c.83-2.53-1-3.36-3.25-3.56s-4.06 1.83-4.06 1.83l-7.34-5 10.2-3.88a3.31 3.31 0 0 0 2.39 2.1zm-28.44-5.78c-.47-.1-1.66.73-3.19.53s-3.33-1.7-.7-2.49c.86-.26 1.76.1 1.79-.2s-.69-2.3.93-3 2.33.23 2.36 1.83v1.59l7.31 5.72-2.4.7s-5.64-4.58-6.1-4.68zm24.45 14.62c.24-.13.2-.53.2-.53l-.46-.73a3.24 3.24 0 0 1 2.89-1.43c1.93.13 2.59 1.23 2.43 2.09a3.59 3.59 0 0 1 -2 2.33c-.83.2-1.93.36-1.93.36a3.15 3.15 0 0 1 -1.39 2 2.56 2.56 0 0 1 -2.7-.53c-.49-.43-.73-1.76-.26-2.2l.7-.66-.1-.66s-4.46-2.7-6-3.73-3.15-2.32-3.15-2.32 2-.53 2.16-.6c-.02.03 9.38 6.74 9.61 6.61zm-17.74-5.78c-5 1.72-8.41 3-8.54 3.22s-.23 2.19-1.4 2.79a2.44 2.44 0 0 1 -3.32-.9 2.49 2.49 0 0 1 -.1-2.26s.77-.06.77-.19a6.53 6.53 0 0 0 -.24-.84s-2.86.1-3.12-1 .33-3.39 2.39-3.32a3 3 0 0 1 2.13 1c.23.33.8 1.13 1 1.13s4.32-.77 15-4 13.43-4.59 13.53-4.65.69-.87.66-1.07a1.51 1.51 0 0 1 .7-2.16 1.59 1.59 0 0 1 2.39 1.5c-.23.86-.46.89-.46.89s-.37.84-.14.93 2.73-.29 2.73 2.2-1.4 3-2.63 2-1.53-2.07-1.79-2.1-14.58 5.1-19.56 6.83z" fill="#1d1d1b"/></svg>