<svg height="64" viewBox="0 0 64 64" width="64" xmlns="http://www.w3.org/2000/svg"><path d="m39.35 17.64a24 24 0 0 0 -4.35 1.59 1.24 1.24 0 0 0 .23 1 27.73 27.73 0 0 0 4.48-1.5 1.51 1.51 0 0 0 -.36-1.09zm7.86-6.14a35.56 35.56 0 0 0 -3.63 1.27c-.17.1.19.79.27.81a35.7 35.7 0 0 0 3.65-1.14c.06-.13-.13-.9-.29-.94zm8.43 11.31c-.21-1-3.73-11.58-4.41-13.52s-2.57-1.9-3.92-1.56a37.14 37.14 0 0 0 -7.08 2.89c-1.34.9-.63 3.52-.63 3.52a25.89 25.89 0 0 1 -3.25 1.5c-2.48 1-21.71 9.05-21.94 9.17s-.12 1.54-.12 1.63-.33.06-.4 0-.68-1.92-.68-1.92a4.87 4.87 0 0 0 1-.44 16.25 16.25 0 0 0 -1.27-3.66 34.24 34.24 0 0 0 -4.64 1.93 10.58 10.58 0 0 0 1.31 3c.17.09 1.27-.39 1.27-.39s.71 1.87.77 2a5.76 5.76 0 0 0 -1.23.5 16.63 16.63 0 0 0 .75 3.33c.13.25 4-.6 4-.6s.23.39.34.56.25.15.62.23 9.19-1.11 9.19-1.11a6.38 6.38 0 0 0 .54.82c.29.35.75 1 .75 1l-7.22 17.31a2.06 2.06 0 0 0 -1.14.44.87.87 0 0 0 .43 1.6c.9.08 2.15.27 2.48-.56s-.58-1.4-.58-1.4 3.79-9.12 3.85-9.25 4 1.88 4 1.88l.28 11.91a3.39 3.39 0 0 0 -.65.25 1.3 1.3 0 0 0 -.19 2.13c.88.7 2.65.75 2.94-.52a1.59 1.59 0 0 0 -.9-1.8s-.25-11.58-.2-11.68 4-2.38 4.1-2.38 4.75 9.23 4.75 9.23a2.19 2.19 0 0 0 -.75.85c-.27.57-.23 1.86.6 2.19s3 .25 3-1.39a1.88 1.88 0 0 0 -1.62-1.86l-9.15-17.31s.38-.08.71-1.1a4.18 4.18 0 0 0 -.1-2.27 16.22 16.22 0 0 1 2.27-.27c1.89-.17 10.54-.75 10.54-.75s.83.85 1 1a2.89 2.89 0 0 0 1.63.25c.85-.07 7.7-2 8.37-2.65a2.92 2.92 0 0 0 .58-2.73zm-45.56 1.73c-.08 0-.79-1.63-.58-1.75a23.7 23.7 0 0 1 2.93-1.08 5 5 0 0 1 .57 1.83 17.21 17.21 0 0 1 -2.92 1zm4.6 5a13.49 13.49 0 0 1 -2.93.41 12.41 12.41 0 0 1 -.23-2.18 17.93 17.93 0 0 1 2.83-.34 9.08 9.08 0 0 1 .33 2.07zm24.9 20.08c.42.05.92.75.73 1.17s-1.21.62-1.52.16a.85.85 0 0 1 .79-1.37zm-11.23-9.25a8.28 8.28 0 0 1 -1.6-.89c.1-.07 1.16-.42 1.14-.48s-.14-1-.25-1-2.43.5-2.52.46 2.29-6.38 2.4-6.44.54.21.54.21.35 8.14.29 8.14zm-1.5-10.37a2.08 2.08 0 0 1 1.5-3.31c1.07-.24 2.33.91 1.94 2.89s-2.69 1.71-3.44.42zm6.29 8.17a30.55 30.55 0 0 0 -3.08-.27c-.1.14-.25.66-.15.72s2.65.4 2.52.5a21.25 21.25 0 0 1 -2.95 1.36c-.07-.11-.27-8.11-.21-8.21a1.7 1.7 0 0 1 .64-.33c.09.06 3.4 6.22 3.23 6.27zm9.46-12.8a24.59 24.59 0 0 0 -1.46-3.29c-.21 0-.6.13-.6.25s1.27 3.17 1.12 3.17-.7.08-.7.08a26.38 26.38 0 0 0 -1.4-3c-.15 0-.73.19-.73.32s1.17 2.66 1.08 2.66l-.85.07a23.67 23.67 0 0 0 -1.48-2.5c-.15 0-.81.2-.77.37a19.08 19.08 0 0 1 1.06 2.23 13 13 0 0 1 -1.37.13 12.09 12.09 0 0 0 -1-1.82c-.17 0-.73 0-.73.21s.71 1.69.64 1.73-4.43.67-4.43.67-.75-1.52-3.25-.9a2.58 2.58 0 0 0 -2.19 2.69c-.11.06-7.19.94-7.67 1s-.71.14-.77 0a25.06 25.06 0 0 1 -1-3.81c.2-.26 24-10 24.13-9.82s3.52 9.25 3.37 9.4-1 .2-1 .2zm10.71-.87a25.54 25.54 0 0 0 -1-3.83c-.23-.09-.77.12-.71.27a29 29 0 0 1 .94 3.75c-.1.16-.9.52-.92.41s-.91-4.25-1.2-4.39-.8.21-.84.44 1.29 4 1.15 4.12a1.69 1.69 0 0 1 -.79.19c0-.06-1.13-4.19-1.3-4.27s-.93.14-.93.27 1.48 4.08 1.39 4.19a2 2 0 0 1 -.89.25c0-.07-1.42-4.42-1.57-4.46s-.87.08-.85.29 1.5 4.25 1.35 4.29-.77.33-.89.21-4.54-11.48-4.75-12.29a3.26 3.26 0 0 1 .08-2.17 53.07 53.07 0 0 1 6.33-2.42c.38-.06 1.17-.23 1.46.61s4.81 13.93 4.69 14.18-.75.4-.75.4z" fill="#1d1d1b"/></svg>